<?xml version="1.0" encoding="utf-8"?>
<!-- Generator: Adobe Illustrator 19.0.0, SVG Export Plug-In . SVG Version: 6.00 Build 0)  -->
<svg version="1.1" id="Layer_1" xmlns="http://www.w3.org/2000/svg" xmlns:xlink="http://www.w3.org/1999/xlink" x="0px" y="0px"
	 viewBox="-315 317 368 368" style="enable-background:new -315 317 368 368;" xml:space="preserve">
<style type="text/css">
	.st0{fill:#FFFFFF;}
</style>
<g transform="translate(0.000000,368.000000) scale(0.100000,-0.100000)">
	<path class="st0" d="M-1505,500c-760-11-849-22-1091-140c-182-90-317-226-409-415c-29-60-57-123-60-140c-4-16-13-48-20-70
		c-8-22-22-96-32-165c-16-112-18-207-18-900c1-685,3-789,18-898c40-277,113-440,277-615c146-155,328-247,585-294
		c92-16,171-18,955-18c773,0,862,2,930,17c41,10,106,24,143,32c133,29,296,115,410,216c48,43,177,200,177,217c0,4,11,25,25,45
		c34,50,80,192,99,308c32,187,38,414,33,1135c-5,654-6,707-26,813C458-192,393-25,317,75C210,216,47,343-100,399
		c-160,61-244,75-545,91c-99,5-202,11-230,14C-902,506-1186,504-1505,500z M-495,156C-286,134-166,92-61,5C80-112,148-248,182-485
		c19-132,19-1575-1-1695c-36-230-80-329-196-446c-186-187-323-211-1250-218c-752-6-995,15-1189,103c-86,39-211,165-255,256
		c-83,172-89,211-103,760c-12,492,0,1195,22,1285c6,25,16,69,21,99c12,77,81,208,144,279c100,109,227,176,395,208
		c82,15,184,19,735,24C-781,178-695,177-495,156z"/>
	<path class="st0" d="M-400-146c-41-16-94-62-116-99c-19-34-24-56-24-112c0-61,4-75,29-109c39-53,63-74,108-90c80-28,167-8,226,52
		c46,45,60,83,61,155c0,56-4,73-27,108c-42,63-92,91-173,96C-354-142-392-143-400-146z"/>
	<path class="st0" d="M-1420-400c-190-18-404-123-550-270c-359-358-368-943-21-1304c128-132,220-190,401-250c106-36,126-39,255-43
		c126-4,151-2,248,21c312,75,581,325,673,628c31,102,47,306,33,421c-25,198-130,401-285,548c-74,70-127,105-234,156
		C-1085-404-1220-380-1420-400z M-1140-742c142-43,288-155,360-277c42-73,89-226,92-306c4-111-50-270-127-373
		c-261-347-773-328-1012,38c-86,133-117,320-78,475c51,203,206,368,410,437c75,26,88,27,200,22C-1229-729-1159-736-1140-742z"/>
</g>
</svg>
