<?xml version="1.0" encoding="utf-8"?>
<!-- Generator: Adobe Illustrator 19.0.0, SVG Export Plug-In . SVG Version: 6.00 Build 0)  -->
<svg version="1.1" id="Layer_1" xmlns="http://www.w3.org/2000/svg" xmlns:xlink="http://www.w3.org/1999/xlink" x="0px" y="0px"
	 viewBox="-471 273 16 16" style="enable-background:new -471 273 16 16;" xml:space="preserve">
<style type="text/css">
	.st0{fill:#FFFFFF;}
</style>
<path class="st0" d="M-465,279h2.8v1.4h0c0.4-0.7,1.3-1.4,2.7-1.4c2.9,0,3.5,1.8,3.5,4.2v4.8h-2.9v-4.3c0-1,0-2.3-1.5-2.3
	c-1.5,0-1.7,1.1-1.7,2.3v4.3h-2.9C-465,288-465,279-465,279z"/>
<path class="st0" d="M-470,279h3v9h-3V279z"/>
<path class="st0" d="M-467,276.5c0,0.8-0.7,1.5-1.5,1.5s-1.5-0.7-1.5-1.5s0.7-1.5,1.5-1.5S-467,275.7-467,276.5z"/>
</svg>
