<?xml version="1.0" encoding="UTF-8"?>
<svg enable-background="new -231 233 16 16" version="1.1" viewBox="-231 233 16 16" xml:space="preserve" xmlns="http://www.w3.org/2000/svg">
<style type="text/css">
	.st0{fill:#FFCE00;}
</style>
<path class="st0" d="m-215.5 246.6l-3.8-3.2c-0.4-0.4-0.8-0.5-1.1-0.5 0.9-1 1.4-2.4 1.4-3.9 0-3.3-2.7-6-6-6s-6 2.7-6 6 2.7 6 6 6c1.5 0 2.8-0.5 3.9-1.4 0 0.3 0.1 0.8 0.5 1.1l3.2 3.8c0.6 0.6 1.5 0.7 2 0.1 0.6-0.5 0.5-1.4-0.1-2zm-9.5-3.6c-2.2 0-4-1.8-4-4s1.8-4 4-4 4 1.8 4 4-1.8 4-4 4z"/>
</svg>
