<svg id="Layer_4" data-name="Layer 4" xmlns="http://www.w3.org/2000/svg" xmlns:xlink="http://www.w3.org/1999/xlink" viewBox="0 0 186.03 185.25"><defs><style>.cls-1{fill:#76bd43;}.cls-2{fill:#864e9e;}.cls-3{fill:#c86a29;}.cls-4{fill:#0063a7;}.cls-5{fill:url(#linear-gradient);}.cls-6{fill:url(#linear-gradient-2);}.cls-7{fill:url(#linear-gradient-3);}.cls-8{fill:url(#linear-gradient-4);}.cls-10,.cls-9{fill:#fff;}.cls-9{fill-rule:evenodd;}.cls-11{fill:#fff;}</style><linearGradient id="linear-gradient" x1="66.27" y1="171.14" x2="66.27" y2="107.38" gradientUnits="userSpaceOnUse"><stop offset="0.01" stop-color="#c86a29"/><stop offset="0.17" stop-color="#c96c2c"/><stop offset="0.31" stop-color="#cc7437"/><stop offset="0.44" stop-color="#d08048"/><stop offset="0.56" stop-color="#d69161"/><stop offset="0.68" stop-color="#dfa881"/><stop offset="0.8" stop-color="#e9c3a9"/><stop offset="0.91" stop-color="#f5e3d6"/><stop offset="1" stop-color="#fff"/></linearGradient><linearGradient id="linear-gradient-2" x1="36.03" y1="153.77" x2="36.03" y2="113.66" gradientUnits="userSpaceOnUse"><stop offset="0.01" stop-color="#77bd43"/><stop offset="0.2" stop-color="#79be46"/><stop offset="0.35" stop-color="#80c150"/><stop offset="0.48" stop-color="#8cc760"/><stop offset="0.61" stop-color="#9dcf77"/><stop offset="0.72" stop-color="#b3da95"/><stop offset="0.84" stop-color="#cde7ba"/><stop offset="0.94" stop-color="#ecf6e5"/><stop offset="1" stop-color="#fff"/></linearGradient><linearGradient id="linear-gradient-3" x1="51.21" y1="163.14" x2="51.21" y2="102.6" gradientUnits="userSpaceOnUse"><stop offset="0.01" stop-color="#864e9e"/><stop offset="0.19" stop-color="#8851a0"/><stop offset="0.34" stop-color="#8f5ca5"/><stop offset="0.48" stop-color="#9b6daf"/><stop offset="0.61" stop-color="#ac86bc"/><stop offset="0.74" stop-color="#c2a5ce"/><stop offset="0.87" stop-color="#dccce3"/><stop offset="0.99" stop-color="#fbf9fc"/><stop offset="1" stop-color="#fff"/></linearGradient><linearGradient id="linear-gradient-4" x1="81.57" y1="172.65" x2="81.57" y2="80.34" gradientUnits="userSpaceOnUse"><stop offset="0.01" stop-color="#0063a7"/><stop offset="0.1" stop-color="#106dad"/><stop offset="0.27" stop-color="#3b87bb"/><stop offset="0.51" stop-color="#7fb1d3"/><stop offset="0.81" stop-color="#dceaf3"/><stop offset="0.91" stop-color="#fff"/></linearGradient></defs><title>Transp_Reporting_logo</title><path class="cls-1" d="M95.47,18.39a77.3,77.3,0,0,0-77.3,77.3h77.3Z" transform="translate(-2.24 -3.09)"/><path class="cls-2" d="M95.47,95.69h77.3A77.29,77.29,0,0,1,95.47,173Z" transform="translate(-2.24 -3.09)"/><path class="cls-3" d="M95.47,95.69h77.3a77.3,77.3,0,0,0-77.3-77.3Z" transform="translate(-2.24 -3.09)"/><path class="cls-4" d="M18.17,95.69A77,77,0,0,0,29.49,136V113.66H42.58V152c.68.64,1.38,1.27,2.09,1.89V102.6H57.76v60.54h0c.66.37,1.33.73,2,1.08V107.38H72.81V169.6c.73.23,1.48.43,2.22.63V95.69Z" transform="translate(-2.24 -3.09)"/><path class="cls-4" d="M95.47,95.69H88.12V171H78a77.9,77.9,0,0,0,17.47,2Z" transform="translate(-2.24 -3.09)"/><path class="cls-5" d="M59.72,107.38v56.84a76.6,76.6,0,0,0,13.09,5.38V107.38Z" transform="translate(-2.24 -3.09)"/><path class="cls-6" d="M29.49,113.66V136A77.38,77.38,0,0,0,42.58,152V113.66Z" transform="translate(-2.24 -3.09)"/><path class="cls-7" d="M57.76,102.6H44.67v51.32a78.18,78.18,0,0,0,13,9.22h0Z" transform="translate(-2.24 -3.09)"/><path class="cls-8" d="M75,89v81.22c1,.27,2,.51,3,.74l10.12,1.66V89Z" transform="translate(-2.24 -3.09)"/><g id="michigan"><path class="cls-9" d="M128.62,58.9c-1.84-1.71-3.36-3.64-5-5.46a6.7,6.7,0,0,0-8.11-1.84c-.71.28-1.38.56-2,.06a7.22,7.22,0,0,0-3.19-1.33,2.1,2.1,0,0,1-1.89-2.73c.22-1.16.49-2.48-.95-3.11a3.81,3.81,0,0,0-3.9.49c-1.28,1-2.82,1.25-4.27,1.82-3,1.15-6.47.88-9.31,2.62A9.43,9.43,0,0,1,87,50.81a3.27,3.27,0,0,0-2.6,2,14.32,14.32,0,0,1-2.35,3.4c-.81,1-1.49,1.65-2.15-.19-.58-1.56-1.72-2.52-3.65-1.64-.51.23-1.19.29-1.41-.23-.85-1.92-2.51-1.56-3.78-.94-1.89.92-3,.14-4.3-.94a6.11,6.11,0,0,1-2-2.92,2.75,2.75,0,0,0-2.9-2.29c-2.54.13-5.06.66-7.62.58a2.24,2.24,0,0,0-1.43.55c-.34.25-.61.79-1.14.5s-.44-.9-.32-1.36c.49-1.93,1.09-3.79,3.08-5A4.67,4.67,0,0,0,57,39.26,1.5,1.5,0,0,1,58.25,38c1.39-.3,3.53-.54,3.15-1.89-.44-1.61-4-1.94-5.15-1.48-5,2-8,3.3-10.41,8.58-2.34,5.07-8.17,8.3-13.43,10.33-.84.33-1.67.66-2.48,1a63.44,63.44,0,0,0-6,11.88,13.94,13.94,0,0,0,4.26.17A29.9,29.9,0,0,1,38.7,68.5c6.51,2.14,12.86,5.12,20.13,3.37,1.59-.38,2.21.59,2,2.13-.18,1-.14,2.19,1.32,2.25,2.46.1,3,1.66,3.26,3.48a5.6,5.6,0,0,1-.82,4.46c-.65.84-.9,2,.65,2,2.08.1,2.27,1.29,2.28,2.77,0,1.32.36,2.57,2,2.82s1.73-1.21,2.26-2.13a8.36,8.36,0,0,0,.36-.87c1.36-2.88,2.08-6.06,4.14-8.6a7.67,7.67,0,0,0,2-5.66c-.09-1.13-.41-3,1.93-1.45.48.32,1,0,1.49-.15,1-.37,1.42,0,1.3.91-.16,1.23.44,1.87,1.64,2.14,1.37.33,1.69-.72,2.07-1.52,2.46-5.14,6.83-7.71,12.59-7.75,2.59,0,3.57-1.23,4.53-3,.21-.38.33-.81.51-1.21.52-1.24,1.26-1.63,2.53-.7,1.49,1.1,3,2.15,4.62,3.15,1.79,1.15,3.24.56,3.66-1.48.07-.35,0-.74.09-1.1.22-1.23.88-1.61,1.77-.55,1.37,1.6,3.12,1.27,5.12,1.23,1.68-.18,3.41.34,5.08.06C129.75,62.74,130.54,60.68,128.62,58.9Z" transform="translate(-2.24 -3.09)"/><path class="cls-10" d="M160.21,125.39c-.6-2.67-2.64-5-2.23-7.88.69-4.81-2.32-8.36-4.42-12.2-.85-1.54-2.07-1.59-3.55-.46a11.72,11.72,0,0,1-2.8,1.59,7.73,7.73,0,0,0-4.24,4.31c-.32.73-.52,1.51-.86,2.23-.92,1.9-2.74,1.77-4.5,1.66a2.31,2.31,0,0,1-2.44-1.94,10,10,0,0,1,.33-4.89,2,2,0,0,1,1.91-1.52,4,4,0,0,0,4.17-3.81,5,5,0,0,1,1.62-3,7.84,7.84,0,0,0,2.36-4.9,14.39,14.39,0,0,0-2.74-10.43,2.3,2.3,0,0,1,.19-3.45,2.25,2.25,0,0,0,.45-2.84c-1-2.6-3.16-3.71-5.86-4.19-2.4-.43-5-.49-7-1.82-2.36-1.53-4.92-2.64-7.38-4A10.65,10.65,0,0,0,117,66.52c-2.8.24-3.47,2-4.32,3.8s.15,3,1.82,3.9c1.12.61.73,1.32-.18,1.77a4.25,4.25,0,0,1-1.69.23c-2.94,0-3.23.25-3.89,3-.19.77-.28,1.56-.43,2.34-.37,1.79-.24,3.67-.87,5.41-.23.69-.5,1.59-1.45,1.45s-.72-1.06-.68-1.68c.07-1.52.26-3,.37-4.55,0-.41,0-.92-.47-1.11s-.84.21-1.14.51c-1.29,1.27-2.2,3.09-3.94,3.7-3.06,1.06-2.89,4.58-5.47,5.92-.23.11-.27.68-.25,1,.27,4.8-1.35,9.12-3.71,13.27a3.77,3.77,0,0,0-.3,3.73,4.75,4.75,0,0,1,.29,3.76c-1.51,4.13-.63,8,1.26,11.79a24.23,24.23,0,0,1,2.77,11,31.51,31.51,0,0,1-9.11,22.7,9.17,9.17,0,0,0-1.31,3.9c7,0,34.85-.62,37.68-1.12,0,0-.35,1.4-.33,1.4l13.35-.36c5.61-2.9,13.37-9.89,14.3-10.77,0-.25.19-.24.22-.51.28-2.77.43-5.7,3.18-7.55a3.92,3.92,0,0,0,1.85-3,3.71,3.71,0,0,1,2.87-3.53,3.5,3.5,0,0,0,2.25-2.11A14.22,14.22,0,0,0,160.21,125.39Z" transform="translate(-2.24 -3.09)"/></g><path class="cls-11" d="M12.74,105.47l.56,3.73a5.57,5.57,0,0,1,0,1.4,3.81,3.81,0,0,1-.29,1.14,2.14,2.14,0,0,1-.6.8,1.73,1.73,0,0,1-.87.39,2.3,2.3,0,0,1-.58,0,1.68,1.68,0,0,1-.53-.15,2.16,2.16,0,0,1-.51-.34,5.05,5.05,0,0,1-.52-.57,2.77,2.77,0,0,1-.22.76,2.32,2.32,0,0,1-.39.62,2,2,0,0,1-.54.46,2,2,0,0,1-.68.24,2,2,0,0,1-1-.1,2.41,2.41,0,0,1-.87-.55,3.34,3.34,0,0,1-.67-1A4.26,4.26,0,0,1,4.69,111l-.64-4.28Zm-7.48,3.29.17,1.18a3.56,3.56,0,0,0,.25.88,1.85,1.85,0,0,0,.4.58,1.31,1.31,0,0,0,.52.3,1.6,1.6,0,0,0,.62,0,2.32,2.32,0,0,0,.66-.21,1.38,1.38,0,0,0,.49-.44,1.71,1.71,0,0,0,.26-.7,3.3,3.3,0,0,0,0-1l-.17-1.11Zm4-.6.22,1.41a1.58,1.58,0,0,0,.19.59,1.24,1.24,0,0,0,.86.61,1.59,1.59,0,0,0,1.18-.2,1.14,1.14,0,0,0,.43-.44,1.7,1.7,0,0,0,.22-.68,3.27,3.27,0,0,0,0-.93l-.12-.8Z" transform="translate(-2.24 -3.09)"/><path class="cls-11" d="M14.25,114.8l.57,2.09-5.45,1.49a2.85,2.85,0,0,0-.88.41,2.26,2.26,0,0,0-.63.64,2,2,0,0,0-.32.83,2.22,2.22,0,0,0,.06.95,2.07,2.07,0,0,0,1.13,1.4,2.34,2.34,0,0,0,.87.23,2.71,2.71,0,0,0,1-.11L16,121.24l.36,1.31L10.93,124a3.62,3.62,0,0,1-1.3.12,2.85,2.85,0,0,1-1.22-.41,3.6,3.6,0,0,1-1-1A5.6,5.6,0,0,1,6.63,121a5.07,5.07,0,0,1-.2-1.72,3.7,3.7,0,0,1,.37-1.38,3.05,3.05,0,0,1,.84-1,3.12,3.12,0,0,1,1.18-.59Z" transform="translate(-2.24 -3.09)"/><path class="cls-11" d="M17.1,124.67l1.22,2.94a8.37,8.37,0,0,1,.61,2.2,5.49,5.49,0,0,1-.1,2,3.86,3.86,0,0,1-.8,1.59,4,4,0,0,1-1.54,1.09,4.43,4.43,0,0,1-1.74.35,4.12,4.12,0,0,1-1.71-.4,4.93,4.93,0,0,1-1.52-1.16,6.58,6.58,0,0,1-1.18-1.93L9,128.05Zm-6.46,5,.44,1.06a3.09,3.09,0,0,0,.68,1,3,3,0,0,0,1,.64,3.36,3.36,0,0,0,1.29.18,4.42,4.42,0,0,0,1.49-.36,3.82,3.82,0,0,0,1.18-.74,3.28,3.28,0,0,0,.76-1,2.9,2.9,0,0,0,.29-1.19,2.74,2.74,0,0,0-.24-1.24L17.1,127Z" transform="translate(-2.24 -3.09)"/><path class="cls-11" d="M20,141.25l1.83,3.16-2.93,1.7-.79-.52a6.86,6.86,0,0,1-.73-.62,7.07,7.07,0,0,1-.71-.8,8.85,8.85,0,0,1-.71-1.06,6.71,6.71,0,0,1-.77-2,5,5,0,0,1-.05-1.88,4.07,4.07,0,0,1,.67-1.64,4,4,0,0,1,1.37-1.24,4.75,4.75,0,0,1,2.48-.66,4.6,4.6,0,0,1,1.21.22,4.54,4.54,0,0,1,1.13.55,5.42,5.42,0,0,1,1,.86,6.51,6.51,0,0,1,.85,1.17,4.34,4.34,0,0,1,.49,1.21,5.19,5.19,0,0,1,.16,1.23,5.5,5.5,0,0,1-.12,1.16,4.2,4.2,0,0,1-.34,1L23,142.76a7.9,7.9,0,0,0,.35-.87,4.55,4.55,0,0,0,.18-.86,3.29,3.29,0,0,0,0-.83,2.44,2.44,0,0,0-.3-.8,3.38,3.38,0,0,0-.85-1,2.8,2.8,0,0,0-1.12-.52,3.44,3.44,0,0,0-1.32,0,4.48,4.48,0,0,0-1.45.55,4.34,4.34,0,0,0-1.18,1,3.26,3.26,0,0,0-.6,1.17,3,3,0,0,0-.07,1.24,3.52,3.52,0,0,0,.45,1.23,2.45,2.45,0,0,0,.48.62,2.25,2.25,0,0,0,.61.41l2-1.17-.75-1.29Z" transform="translate(-2.24 -3.09)"/><path class="cls-11" d="M31.05,149.29l-.6.45-2.65-3.52L25.48,148l2.2,2.93-.6.45-2.2-2.93-2.79,2.09L24.74,154l-.72.54-3.94-5.25,7-5.28Z" transform="translate(-2.24 -3.09)"/><path class="cls-11" d="M37.57,156.41l-.54.51-2.09-2.22-5.86,5.51-1.48-1.57,5.87-5.51-2.08-2.22.54-.51Z" transform="translate(-2.24 -3.09)"/><path class="cls-11" d="M39,169.16c0-.34-.06-.67-.09-1.15a3.5,3.5,0,0,1-2.54-.82,2.41,2.41,0,0,1-.52-3.51,2.79,2.79,0,0,1,2.87-.87l0,0a3,3,0,0,1,.58-1.83,2.06,2.06,0,0,1,3-.26,1.76,1.76,0,0,1,.32,2.59c-.57.7-1.42.92-2.89.58l0,0c0,1.1.06,2.34.1,3.16a6.41,6.41,0,0,0,2.21-1.41l.79.64a6.54,6.54,0,0,1-3,1.66c.05.66.09,1.31.14,2.05Zm-.11-2c0-.75-.12-2.16-.17-3.6a2.08,2.08,0,0,0-1.94.65,1.67,1.67,0,0,0,.26,2.43A2.4,2.4,0,0,0,38.91,167.18Zm1.28-5.67a2.45,2.45,0,0,0-.47,1.59c1,.17,1.7.17,2.15-.39a1,1,0,0,0-.06-1.48A1.11,1.11,0,0,0,40.19,161.51Z" transform="translate(-2.24 -3.09)"/><path class="cls-11" d="M46.4,174.42a4.75,4.75,0,0,1-1.08-.89,3.24,3.24,0,0,1-.59-1,2.5,2.5,0,0,1-.14-1,3.42,3.42,0,0,1,.23-1l1.27.79A3,3,0,0,0,46,172a1.62,1.62,0,0,0,.06.62,1.64,1.64,0,0,0,.28.56,1.94,1.94,0,0,0,.56.49,2.23,2.23,0,0,0,.49.24,1.84,1.84,0,0,0,.51.1,1.08,1.08,0,0,0,.47-.11,1,1,0,0,0,.39-.38,1.25,1.25,0,0,0,.2-.69,2.24,2.24,0,0,0-.16-.75,5.33,5.33,0,0,0-.39-.8l-.5-.82c-.17-.28-.34-.56-.49-.85a3.87,3.87,0,0,1-.36-.85,2.75,2.75,0,0,1-.1-.85,1.77,1.77,0,0,1,.29-.82,2.07,2.07,0,0,1,.7-.71,2.25,2.25,0,0,1,1-.3,3.24,3.24,0,0,1,1.17.12,4.93,4.93,0,0,1,1.31.61,3.66,3.66,0,0,1,.93.79,3.13,3.13,0,0,1,.54.93,2.85,2.85,0,0,1,.18,1,3.52,3.52,0,0,1-.12,1l-1.16-.72a3.76,3.76,0,0,0,.09-.65,2.18,2.18,0,0,0-.06-.63,1.73,1.73,0,0,0-.28-.58,2.36,2.36,0,0,0-.59-.52,2.24,2.24,0,0,0-.66-.28,1.47,1.47,0,0,0-.55,0,1,1,0,0,0-.42.19,1,1,0,0,0-.28.31,1.08,1.08,0,0,0-.17.65A2.38,2.38,0,0,0,49,169a6.17,6.17,0,0,0,.41.81c.16.28.33.56.51.85s.34.58.5.88a4.64,4.64,0,0,1,.37.87,2.59,2.59,0,0,1,.12.86,1.61,1.61,0,0,1-.26.8,2.19,2.19,0,0,1-.72.73,2.28,2.28,0,0,1-1,.33,3.17,3.17,0,0,1-1.2-.11A5.25,5.25,0,0,1,46.4,174.42Z" transform="translate(-2.24 -3.09)"/><path class="cls-11" d="M59.66,171.29l-.19,9.88-2-1,0-2.64-3.08-1.48-2.08,1.67-1.32-.64,7.76-6.23Zm-4.48,4.24,2.39,1.15,0-3.13Z" transform="translate(-2.24 -3.09)"/><path class="cls-11" d="M64.56,173.68l2,.72L64,181.84l4.23,1.5-.3.85L61.63,182Z" transform="translate(-2.24 -3.09)"/><path class="cls-11" d="M76.49,177.13l1.93,9.69-2.14-.5-.52-2.6-3.32-.78L70.76,185l-1.43-.34,6.25-7.75ZM73,182.23l2.58.61L75,179.78Z" transform="translate(-2.24 -3.09)"/><path class="cls-11" d="M81.74,178.42l3.28.4a5.67,5.67,0,0,1,1.46.36,3.17,3.17,0,0,1,1,.63,2.13,2.13,0,0,1,.54.83,2.09,2.09,0,0,1,.09,1,1.65,1.65,0,0,1-.22.69,2.35,2.35,0,0,1-.49.56,2.88,2.88,0,0,1-.69.42,4.33,4.33,0,0,1-.86.26l2.6,4.56-2.32-.29-2.45-4.31-.38,0-.49,3.95-2.13-.26Zm1.65,4.28.46.06a2.59,2.59,0,0,0,.74,0,1.8,1.8,0,0,0,.62-.25,1.49,1.49,0,0,0,.45-.45,1.72,1.72,0,0,0,.22-.66,1.7,1.7,0,0,0,0-.64,1.65,1.65,0,0,0-.24-.54,1.36,1.36,0,0,0-.41-.38,1.28,1.28,0,0,0-.56-.18l-.87-.11Z" transform="translate(-2.24 -3.09)"/><path class="cls-11" d="M91.33,179.38l2.84,4,2.77-3.91,1.45,0-3.5,4.93,0,3.81-2.16,0,0-3.67-3.66-5.17Z" transform="translate(-2.24 -3.09)"/><path class="cls-11" d="M101.54,179.13l1.24-.09-2.24,9.21-1.24.09Z" transform="translate(-2.24 -3.09)"/><path class="cls-11" d="M106.84,183a4,4,0,0,0,.5,1.45,3.39,3.39,0,0,0,.86,1,2.8,2.8,0,0,0,1.08.5,2.94,2.94,0,0,0,1.18,0,2.17,2.17,0,0,0,.82-.3,3.18,3.18,0,0,0,.67-.54,4.45,4.45,0,0,0,.54-.73,9.32,9.32,0,0,0,.45-.83l1,.5a5,5,0,0,1-.55,1,4.76,4.76,0,0,1-.78.9,4.64,4.64,0,0,1-1,.71,4.07,4.07,0,0,1-1.22.4,6.3,6.3,0,0,1-2.12,0,4.94,4.94,0,0,1-1.78-.66,4.19,4.19,0,0,1-1.3-1.25,4.55,4.55,0,0,1-.7-1.8,4.94,4.94,0,0,1,0-1.27,4.53,4.53,0,0,1,.29-1.18,4.33,4.33,0,0,1,.6-1,4.79,4.79,0,0,1,.89-.85,4.74,4.74,0,0,1,1.15-.64,6.11,6.11,0,0,1,1.38-.39,5.15,5.15,0,0,1,1.4,0,4.39,4.39,0,0,1,2.25.89,6.13,6.13,0,0,1,.86.83l-.8.78a8.54,8.54,0,0,0-.71-.64,6,6,0,0,0-.79-.49,3.69,3.69,0,0,0-.83-.28,2.31,2.31,0,0,0-.87,0,2.81,2.81,0,0,0-1.1.41,2.77,2.77,0,0,0-.85.82,3.41,3.41,0,0,0-.47,1.19A4.15,4.15,0,0,0,106.84,183Z" transform="translate(-2.24 -3.09)"/><path class="cls-11" d="M121.62,184.42a6,6,0,0,1-1.35.25,5.41,5.41,0,0,1-1.28-.08,4.9,4.9,0,0,1-1.18-.37,4.33,4.33,0,0,1-1-.67,4.51,4.51,0,0,1-.81-.93,4.39,4.39,0,0,1-.54-1.18,4.62,4.62,0,0,1-.21-1.26,4.27,4.27,0,0,1,.16-1.19,4.07,4.07,0,0,1,.48-1.09,4.67,4.67,0,0,1,.76-1,5.28,5.28,0,0,1,1-.76,5.64,5.64,0,0,1,1.25-.55,5.93,5.93,0,0,1,1.35-.25,5.31,5.31,0,0,1,1.27.06,4.67,4.67,0,0,1,1.17.36,3.9,3.9,0,0,1,1,.63,4.09,4.09,0,0,1,.8.9,4.59,4.59,0,0,1,.53,1.14,4.79,4.79,0,0,1,.22,1.31,4.51,4.51,0,0,1-.14,1.23,4.43,4.43,0,0,1-.47,1.12,5.07,5.07,0,0,1-.77,1,5.29,5.29,0,0,1-1,.78A6.12,6.12,0,0,1,121.62,184.42Zm-.22-.71a2.1,2.1,0,0,0,1-.62,2.4,2.4,0,0,0,.55-1,4,4,0,0,0,.12-1.33,6.92,6.92,0,0,0-.29-1.54,6.52,6.52,0,0,0-.62-1.41,3.78,3.78,0,0,0-.83-1,2.46,2.46,0,0,0-1-.5,2.25,2.25,0,0,0-1.17.07,2.19,2.19,0,0,0-1,.6,2.44,2.44,0,0,0-.56,1,3.83,3.83,0,0,0-.12,1.29,6.13,6.13,0,0,0,.28,1.51,7.11,7.11,0,0,0,.62,1.45,4.19,4.19,0,0,0,.84,1,2.44,2.44,0,0,0,1,.54A2.27,2.27,0,0,0,121.4,183.71Z" transform="translate(-2.24 -3.09)"/><path class="cls-11" d="M125.43,173.64l1.91-.87,5.24,4.22.26-6.71,1.87-.84,3.63,8-2,.88L134,173.11l-.25,6.41-.76.34-5.1-4.06,2.39,5.28-1.24.57Z" transform="translate(-2.24 -3.09)"/><path class="cls-11" d="M136.47,168.24l2.59-1.64a6.61,6.61,0,0,1,1.26-.61,3.46,3.46,0,0,1,1.19-.2,2.32,2.32,0,0,1,1.05.25,2.05,2.05,0,0,1,.81.77,2.09,2.09,0,0,1,.35,1.06,2.42,2.42,0,0,1-.19,1,3.1,3.1,0,0,1-.61.94,5,5,0,0,1-.89.75l-1.08.68,2.05,3.24-1.83,1.16Zm4.06,2.35.59-.37a1.48,1.48,0,0,0,.47-.46,1.21,1.21,0,0,0,.19-.55,1.5,1.5,0,0,0-.05-.59,2.3,2.3,0,0,0-.26-.58,2,2,0,0,0-.47-.53,1.49,1.49,0,0,0-.56-.26,1.41,1.41,0,0,0-.58,0,1.79,1.79,0,0,0-.56.23l-.54.34Z" transform="translate(-2.24 -3.09)"/><path class="cls-11" d="M148.88,159.42l.46.59-3.45,2.73,1.8,2.28,2.87-2.27.47.59-2.87,2.27,2.16,2.74,3.46-2.74.56.71-5.15,4.07-5.46-6.9Z" transform="translate(-2.24 -3.09)"/><path class="cls-11" d="M150.37,158.13l1-1,7.5.43-3.94-4,1-1,6.29,6.33-.66.66-8.21-.54,4.26,4.28-1,1Z" transform="translate(-2.24 -3.09)"/><path class="cls-11" d="M166.26,154.09a4.47,4.47,0,0,1-1,1,3.25,3.25,0,0,1-1,.47,2.52,2.52,0,0,1-1,0,3.35,3.35,0,0,1-1-.35l.94-1.17a2.8,2.8,0,0,0,.62.2,1.63,1.63,0,0,0,.62,0,1.51,1.51,0,0,0,.6-.22,2.07,2.07,0,0,0,.55-.49,2.83,2.83,0,0,0,.29-.47,1.48,1.48,0,0,0,.16-.49,1,1,0,0,0-.06-.48.92.92,0,0,0-.32-.43,1.36,1.36,0,0,0-.67-.28,2.6,2.6,0,0,0-.77.07,5.62,5.62,0,0,0-.83.3l-.88.4c-.29.14-.59.27-.89.39a3.84,3.84,0,0,1-.89.25,2.43,2.43,0,0,1-.85,0,1.73,1.73,0,0,1-.79-.37,2.06,2.06,0,0,1-.62-.79,2.21,2.21,0,0,1-.19-1,3.39,3.39,0,0,1,.26-1.15,5.33,5.33,0,0,1,.75-1.24,3.81,3.81,0,0,1,.9-.82,3.37,3.37,0,0,1,1-.43,3.2,3.2,0,0,1,1-.07,3.5,3.5,0,0,1,1,.25l-.85,1.06a5,5,0,0,0-.64-.16,1.91,1.91,0,0,0-.63,0,1.67,1.67,0,0,0-.61.22,2.11,2.11,0,0,0-.58.52,2,2,0,0,0-.35.63,1.34,1.34,0,0,0-.08.54,1.08,1.08,0,0,0,.14.44,1.37,1.37,0,0,0,.27.31,1.07,1.07,0,0,0,.63.24,2.31,2.31,0,0,0,.76-.1,5.92,5.92,0,0,0,.85-.31l.91-.41c.31-.14.61-.27.92-.39a4.16,4.16,0,0,1,.92-.27,2.49,2.49,0,0,1,.86,0,1.63,1.63,0,0,1,.77.35,2.21,2.21,0,0,1,.64.79,2.17,2.17,0,0,1,.21,1,3.13,3.13,0,0,1-.25,1.18A5.43,5.43,0,0,1,166.26,154.09Z" transform="translate(-2.24 -3.09)"/><path class="cls-11" d="M164.69,140.57l9.79,1.33-1.18,1.86-2.62-.36-1.82,2.88,1.41,2.27-.79,1.24-5.29-8.43Zm3.69,4.94,1.41-2.24-3.09-.42Z" transform="translate(-2.24 -3.09)"/><path class="cls-11" d="M170.62,129.9l.67.34L169.94,133l7.21,3.57-1,1.94-7.2-3.58-1.36,2.73-.67-.33Z" transform="translate(-2.24 -3.09)"/><path class="cls-11" d="M171.34,128l.79-2,8.19,3.2-.79,2Z" transform="translate(-2.24 -3.09)"/><path class="cls-11" d="M183,121.57a5.86,5.86,0,0,1-.52,1.26,5.31,5.31,0,0,1-.75,1,5,5,0,0,1-.95.78,4.25,4.25,0,0,1-1.11.5,4.46,4.46,0,0,1-2.51,0,4.49,4.49,0,0,1-1.16-.51,4.14,4.14,0,0,1-.93-.78,4.27,4.27,0,0,1-.66-1,5.09,5.09,0,0,1-.38-1.16,5.32,5.32,0,0,1-.09-1.27,6.34,6.34,0,0,1,.22-1.35,5.74,5.74,0,0,1,.52-1.27,5,5,0,0,1,.74-1,4.64,4.64,0,0,1,.93-.79,4.56,4.56,0,0,1,1.07-.51,4.37,4.37,0,0,1,2.45,0,4.7,4.7,0,0,1,1.21.52,4.4,4.4,0,0,1,1,.79,4.05,4.05,0,0,1,.69,1,5,5,0,0,1,.4,1.16,5.37,5.37,0,0,1,.09,1.28A5.94,5.94,0,0,1,183,121.57Zm-.72-.21a2.13,2.13,0,0,0,0-1.17,2.5,2.5,0,0,0-.57-1,3.87,3.87,0,0,0-1.05-.82,6.64,6.64,0,0,0-1.46-.58,6.1,6.1,0,0,0-1.52-.25,3.72,3.72,0,0,0-1.28.16,2.38,2.38,0,0,0-1,.58,2.45,2.45,0,0,0-.62,2.19,2.4,2.4,0,0,0,.53,1,3.76,3.76,0,0,0,1,.8,6.19,6.19,0,0,0,1.43.58,6.88,6.88,0,0,0,1.55.26,4,4,0,0,0,1.33-.15,2.38,2.38,0,0,0,1-.58A2.08,2.08,0,0,0,182.28,121.36Z" transform="translate(-2.24 -3.09)"/><path class="cls-11" d="M176,112.58l.19-1.37,6.26-4.15-5.53-.81.19-1.33,8.84,1.29-.14.92-6.89,4.49,6,.88-.2,1.35Z" transform="translate(-2.24 -3.09)"/><path class="cls-11" d="M3.28,81.81l.88.1L3.77,85.5l9.49,1L13,89.06,3.5,88l-.38,3.59-.88-.09Z" transform="translate(-2.24 -3.09)"/><path class="cls-11" d="M4.13,77.44l1-3.8A6.46,6.46,0,0,1,5.74,72a3.6,3.6,0,0,1,.88-1.08,2.48,2.48,0,0,1,1.06-.51,2.58,2.58,0,0,1,1.17,0,2.2,2.2,0,0,1,.77.37,2.68,2.68,0,0,1,.59.66,3.65,3.65,0,0,1,.39.87,5,5,0,0,1,.17,1L16.53,71l-.69,2.69L10.4,75.92l-.11.44,4.58,1.16L14.24,80Zm5.29-1.3.13-.54a2.63,2.63,0,0,0,.09-.87,2.13,2.13,0,0,0-.2-.77A1.66,1.66,0,0,0,9,73.37,1.83,1.83,0,0,0,8.24,73,2,2,0,0,0,7.48,73a1.8,1.8,0,0,0-.67.19,1.63,1.63,0,0,0-.51.43,1.67,1.67,0,0,0-.3.63l-.26,1Z" transform="translate(-2.24 -3.09)"/><path class="cls-11" d="M9.34,60.25l11.71-.45-1,2.41-3.13.12-1.54,3.75,2.11,2.35L16.83,70,8.91,61.27Zm5.32,5,1.2-2.9-3.71.15Z" transform="translate(-2.24 -3.09)"/><path class="cls-11" d="M13.28,52.26l.84-1.4,8.76-1.67L17.2,45.77,18,44.39l9.06,5.47-.57,1-9.61,1.75,6.14,3.7-.84,1.39Z" transform="translate(-2.24 -3.09)"/><path class="cls-11" d="M31.54,44.14a5.16,5.16,0,0,1-1.2,1.12,4.07,4.07,0,0,1-1.24.55,3.08,3.08,0,0,1-1.21,0,3.66,3.66,0,0,1-1.15-.43L27.86,44a3.23,3.23,0,0,0,.74.25,1.8,1.8,0,0,0,.73,0,2,2,0,0,0,.72-.25,2.33,2.33,0,0,0,.66-.58,3.84,3.84,0,0,0,.35-.54,1.88,1.88,0,0,0,.19-.58,1.26,1.26,0,0,0-.05-.58,1.36,1.36,0,0,0-.38-.51,1.49,1.49,0,0,0-.8-.34,2.83,2.83,0,0,0-.9.07,6.57,6.57,0,0,0-1,.34l-1,.46c-.36.16-.71.31-1.07.45a5.41,5.41,0,0,1-1.06.29,2.85,2.85,0,0,1-1,0,2,2,0,0,1-.93-.45,2.56,2.56,0,0,1-.72-1,2.6,2.6,0,0,1-.21-1.19,4,4,0,0,1,.33-1.36,6,6,0,0,1,.91-1.45,4.38,4.38,0,0,1,1.07-1,4.11,4.11,0,0,1,1.18-.49,3.78,3.78,0,0,1,1.21-.07,4.47,4.47,0,0,1,1.18.31l-1,1.25a4.17,4.17,0,0,0-.75-.2,2.36,2.36,0,0,0-.75,0,1.83,1.83,0,0,0-.72.25,2.77,2.77,0,0,0-1.13,1.34,1.73,1.73,0,0,0-.1.64,1.3,1.3,0,0,0,.48.91,1.31,1.31,0,0,0,.74.29,2.89,2.89,0,0,0,.9-.1,8.25,8.25,0,0,0,1-.36l1.09-.47c.36-.17.73-.32,1.1-.46a5.73,5.73,0,0,1,1.09-.3,3.18,3.18,0,0,1,1,0,2,2,0,0,1,.91.43,2.64,2.64,0,0,1,.74,1,2.8,2.8,0,0,1,.25,1.2,3.79,3.79,0,0,1-.33,1.4A5.89,5.89,0,0,1,31.54,44.14Z" transform="translate(-2.24 -3.09)"/><path class="cls-11" d="M29.18,30.86l2.66-2.48a7,7,0,0,1,1.33-1,4.29,4.29,0,0,1,1.35-.5A2.76,2.76,0,0,1,35.8,27a2.48,2.48,0,0,1,1.11.72,2.54,2.54,0,0,1,.64,1.16,2.93,2.93,0,0,1,0,1.25,3.54,3.54,0,0,1-.5,1.22,5.28,5.28,0,0,1-.88,1.07l-1.11,1,3.11,3.33-1.88,1.75Zm5.24,1.86.61-.57a1.79,1.79,0,0,0,.45-.64,1.45,1.45,0,0,0,.1-.68,1.74,1.74,0,0,0-.19-.68,2.76,2.76,0,0,0-.42-.61,2.47,2.47,0,0,0-.68-.52,1.79,1.79,0,0,0-.7-.19,1.6,1.6,0,0,0-.68.12,1.74,1.74,0,0,0-.6.38l-.56.52Z" transform="translate(-2.24 -3.09)"/><path class="cls-11" d="M41.39,20.32l10.19,5.8-2.13,1.52-2.72-1.55-3.29,2.37L44,31.57l-1.41,1L40.49,21Zm1.87,7.07,2.55-1.84-3.22-1.83Z" transform="translate(-2.24 -3.09)"/><path class="cls-11" d="M48.87,15.7l3.47-1.82A6.84,6.84,0,0,1,54,13.25a3.75,3.75,0,0,1,1.4-.06,2.48,2.48,0,0,1,1.09.45,2.51,2.51,0,0,1,.75.89,2.31,2.31,0,0,1,.14,1.69,3.25,3.25,0,0,1-.39.88,4.6,4.6,0,0,1-.67.83l5.61,2.71-2.46,1.28-5.3-2.56-.4.21L56,23.76,53.7,24.94Zm4.49,3.07.49-.26a2.53,2.53,0,0,0,.71-.51,2.12,2.12,0,0,0,.44-.66,1.68,1.68,0,0,0,.13-.74,1.78,1.78,0,0,0-.22-.79,2.08,2.08,0,0,0-.46-.61,1.81,1.81,0,0,0-.6-.37,1.61,1.61,0,0,0-.65-.1,1.76,1.76,0,0,0-.68.2l-.92.48Z" transform="translate(-2.24 -3.09)"/><path class="cls-11" d="M67.92,7.36l.29.83L63.29,10l1.17,3.24,4.08-1.47.3.84L64.76,14l1.39,3.9,4.93-1.77.36,1-7.33,2.63L60.59,10Z" transform="translate(-2.24 -3.09)"/><path class="cls-11" d="M72.5,6.05l1.6-.33,7.14,5.33-1.31-6.5,1.57-.32,2.09,10.38-1.08.22-7.78-5.9,1.42,7-1.59.32Z" transform="translate(-2.24 -3.09)"/><path class="cls-11" d="M89.41,8.67a4.81,4.81,0,0,0,.37,1.78,3.92,3.92,0,0,0,.87,1.27,3.28,3.28,0,0,0,1.2.75,3.45,3.45,0,0,0,1.38.22,2.58,2.58,0,0,0,1-.23,3.94,3.94,0,0,0,.87-.54,4.51,4.51,0,0,0,.74-.77c.23-.29.45-.59.66-.91l1.1.74a7.23,7.23,0,0,1-.79,1.1,6.42,6.42,0,0,1-1.06.95,6,6,0,0,1-1.3.68A5.06,5.06,0,0,1,93,14a7.67,7.67,0,0,1-2.49-.3,5.75,5.75,0,0,1-2-1A5.08,5.08,0,0,1,87.11,11a5.34,5.34,0,0,1-.54-2.22,5.38,5.38,0,0,1,.14-1.51,5,5,0,0,1,.51-1.34,5,5,0,0,1,.86-1.13,5.76,5.76,0,0,1,1.18-.88,6.38,6.38,0,0,1,1.44-.58,8.19,8.19,0,0,1,1.69-.25,6.3,6.3,0,0,1,1.66.15,5.57,5.57,0,0,1,1.38.53,5,5,0,0,1,1.12.86,6.3,6.3,0,0,1,.89,1.1l-1,.79a7.6,7.6,0,0,0-.75-.85A4.94,4.94,0,0,0,94.79,5a3.9,3.9,0,0,0-.94-.46,2.94,2.94,0,0,0-1-.15,3.53,3.53,0,0,0-1.36.33,3.21,3.21,0,0,0-1.11.84,3.89,3.89,0,0,0-.74,1.33A5.09,5.09,0,0,0,89.41,8.67Z" transform="translate(-2.24 -3.09)"/><path class="cls-11" d="M103.53,3.61l2.86,5.07,3.74-4.29,1.72.21L107.12,10l-.53,4.48-2.54-.3.51-4.33L100.87,3.3Z" transform="translate(-2.24 -3.09)"/><path class="cls-11" d="M121.71,7l3.71,1.26A6.79,6.79,0,0,1,127,9a3.71,3.71,0,0,1,1,1,2.47,2.47,0,0,1,.43,1.09,2.57,2.57,0,0,1-.12,1.16,2.28,2.28,0,0,1-.43.74,2.9,2.9,0,0,1-.7.54,3.49,3.49,0,0,1-.91.32,4.51,4.51,0,0,1-1.06.09l1.92,5.92L124.54,19l-1.81-5.6-.43-.14-1.51,4.47-2.42-.82Zm.88,5.37.53.18a2.69,2.69,0,0,0,.86.15,2,2,0,0,0,.78-.13,1.66,1.66,0,0,0,.63-.42,1.91,1.91,0,0,0,.42-.71,2.26,2.26,0,0,0,.12-.75,1.88,1.88,0,0,0-.15-.68,1.6,1.6,0,0,0-.38-.55,1.74,1.74,0,0,0-.61-.35l-1-.33Z" transform="translate(-2.24 -3.09)"/><path class="cls-11" d="M140.89,15l-.39.79-4.68-2.34-1.54,3.08,3.89,1.94-.4.8-3.89-1.94L132,21l4.68,2.33-.48,1-7-3.48,4.66-9.33Z" transform="translate(-2.24 -3.09)"/><path class="cls-11" d="M144.91,17.39l3,2a7.07,7.07,0,0,1,1.26,1.08,4.52,4.52,0,0,1,.79,1.2,3,3,0,0,1,.22,1.26,2.46,2.46,0,0,1-.46,1.24,2.4,2.4,0,0,1-1,.89,3,3,0,0,1-1.21.28,4,4,0,0,1-1.3-.22,5.33,5.33,0,0,1-1.24-.62l-1.25-.85-2.56,3.77L139,26Zm-.65,5.52.69.47a1.68,1.68,0,0,0,.72.29,1.46,1.46,0,0,0,.69-.05,2.07,2.07,0,0,0,.62-.33,2.45,2.45,0,0,0,.5-.56,2.23,2.23,0,0,0,.36-.77,1.6,1.6,0,0,0,0-.72,1.55,1.55,0,0,0-.26-.64,1.83,1.83,0,0,0-.5-.5l-.63-.43Z" transform="translate(-2.24 -3.09)"/><path class="cls-11" d="M151.89,36.22a6.72,6.72,0,0,1-1-1.23,6.24,6.24,0,0,1-.68-1.37,5.9,5.9,0,0,1-.31-1.43,5,5,0,0,1,.09-1.44,5.15,5.15,0,0,1,.48-1.38,5.51,5.51,0,0,1,.89-1.25,4.79,4.79,0,0,1,1.18-.95,4.94,4.94,0,0,1,2.72-.7,5.34,5.34,0,0,1,1.43.23,6.49,6.49,0,0,1,1.39.6,7.45,7.45,0,0,1,1.3,1,7.66,7.66,0,0,1,1.06,1.24,6.15,6.15,0,0,1,.69,1.35,5.76,5.76,0,0,1,.32,1.41,4.74,4.74,0,0,1-.06,1.41,4.88,4.88,0,0,1-.45,1.35,5.11,5.11,0,0,1-.87,1.23,5.59,5.59,0,0,1-1.21,1,5.21,5.21,0,0,1-1.36.58A4.86,4.86,0,0,1,156,38a6,6,0,0,1-1.45-.22,5.62,5.62,0,0,1-1.39-.6A6.56,6.56,0,0,1,151.89,36.22Zm.6-.64a2.67,2.67,0,0,0,1.22.66,2.94,2.94,0,0,0,1.38,0,4.84,4.84,0,0,0,1.44-.66,8.2,8.2,0,0,0,1.41-1.22A7.49,7.49,0,0,0,159,32.86a4.4,4.4,0,0,0,.54-1.44,2.87,2.87,0,0,0-.09-1.34,2.64,2.64,0,0,0-.75-1.16,2.79,2.79,0,0,0-1.22-.69,2.89,2.89,0,0,0-1.34,0,4.43,4.43,0,0,0-1.4.63,7.46,7.46,0,0,0-1.39,1.18,8.18,8.18,0,0,0-1.12,1.49,4.79,4.79,0,0,0-.57,1.48,3,3,0,0,0,.05,1.38A2.7,2.7,0,0,0,152.49,35.58Z" transform="translate(-2.24 -3.09)"/><path class="cls-11" d="M166.61,36.13,169,39.22a6.94,6.94,0,0,1,.92,1.54,3.79,3.79,0,0,1,.31,1.36,2.55,2.55,0,0,1-.25,1.15,2.65,2.65,0,0,1-.74.9,2.22,2.22,0,0,1-.77.38,2.57,2.57,0,0,1-.88.06,3.72,3.72,0,0,1-.93-.23,4.49,4.49,0,0,1-.93-.51l-1.67,6-1.7-2.19L164,42l-.27-.36L160,44.55l-1.57-2Zm-2.22,5,.34.44a2.59,2.59,0,0,0,.64.6,2.1,2.1,0,0,0,.72.32,1.77,1.77,0,0,0,.76,0,1.67,1.67,0,0,0,.73-.36,2,2,0,0,0,.52-.56,1.79,1.79,0,0,0,.25-.65,1.47,1.47,0,0,0,0-.66,1.68,1.68,0,0,0-.31-.63l-.64-.82Z" transform="translate(-2.24 -3.09)"/><path class="cls-11" d="M178.55,53.92l-.77.45L176,51.25l-8.24,4.8-1.29-2.21,8.25-4.8-1.82-3.12.77-.45Z" transform="translate(-2.24 -3.09)"/><path class="cls-11" d="M180.33,57.87l1,2.34-9.54,4.2-1-2.34Z" transform="translate(-2.24 -3.09)"/><path class="cls-11" d="M183.32,64.91l.48,1.56-4.61,7.63,6.35-1.95.47,1.54-10.13,3.1-.32-1.06,5.11-8.32-6.85,2.1L173.35,68Z" transform="translate(-2.24 -3.09)"/><path class="cls-11" d="M182.74,85.81l.57,4.3-4,.53c-.22-.31-.43-.62-.62-.93a6.86,6.86,0,0,1-.53-1,8.7,8.7,0,0,1-.42-1.19,10.65,10.65,0,0,1-.29-1.49,8.07,8.07,0,0,1,0-2.51,6,6,0,0,1,.8-2.08,4.89,4.89,0,0,1,1.47-1.5,5,5,0,0,1,2.08-.74,6,6,0,0,1,1.58,0,5.24,5.24,0,0,1,1.43.41,5.32,5.32,0,0,1,1.23.78,5.63,5.63,0,0,1,1,1.12,6.37,6.37,0,0,1,.72,1.4,8,8,0,0,1,.41,1.67,5.36,5.36,0,0,1,0,1.55,6.6,6.6,0,0,1-.38,1.42,6.2,6.2,0,0,1-.66,1.22,6,6,0,0,1-.82.95l-1.1-.92A9.57,9.57,0,0,0,186,88a4.7,4.7,0,0,0,.59-.86,3.43,3.43,0,0,0,.35-.92,2.89,2.89,0,0,0,0-1,3.88,3.88,0,0,0-.48-1.45,3.24,3.24,0,0,0-1-1.08,3.9,3.9,0,0,0-1.44-.61,5.33,5.33,0,0,0-1.84,0,4.89,4.89,0,0,0-1.73.54,3.8,3.8,0,0,0-1.19,1,3.47,3.47,0,0,0-.64,1.34,4.22,4.22,0,0,0-.07,1.55,3.53,3.53,0,0,0,.25.89,2.46,2.46,0,0,0,.49.73l2.75-.36-.24-1.76Z" transform="translate(-2.24 -3.09)"/><rect class="cls-4" x="3.06" y="92.6" width="4.25" height="4.25"/><rect class="cls-4" x="178.61" y="92.6" width="4.25" height="4.25"/></svg>