<?xml version="1.0" encoding="UTF-8"?>
<svg enable-background="new -467 269 24 24" version="1.1" viewBox="-467 269 24 24" xml:space="preserve" xmlns="http://www.w3.org/2000/svg">
<style type="text/css">
	.st0{fill:#FFFFFF;}
</style>
<path class="st0" d="m-457 270c1.2 0 2.4 0.2 3.5 0.7s2.1 1.1 2.9 1.9 1.4 1.8 1.9 2.9 0.7 2.3 0.7 3.5c0 1-0.2 2-0.5 3s-0.8 1.8-1.5 2.6l5.7 5.7c0.2 0.2 0.3 0.4 0.3 0.7s-0.1 0.5-0.3 0.7-0.4 0.3-0.7 0.3-0.5-0.1-0.7-0.3l-5.7-5.7c-0.8 0.6-1.7 1.1-2.6 1.5s-2 0.5-3 0.5c-1.2 0-2.4-0.2-3.5-0.7s-2.1-1.1-2.9-1.9-1.4-1.8-1.9-2.9-0.7-2.3-0.7-3.5 0.2-2.4 0.7-3.5 1.1-2.1 1.9-2.9 1.8-1.4 2.9-1.9 2.3-0.7 3.5-0.7zm0 2c-0.9 0-1.9 0.2-2.7 0.6-0.9 0.4-1.6 0.9-2.2 1.5s-1.1 1.4-1.5 2.2c-0.4 0.9-0.6 1.8-0.6 2.7s0.2 1.9 0.6 2.7c0.4 0.9 0.9 1.6 1.5 2.2s1.4 1.1 2.2 1.5c0.9 0.4 1.8 0.6 2.7 0.6s1.9-0.2 2.7-0.6c0.9-0.4 1.6-0.9 2.2-1.5s1.1-1.4 1.5-2.2c0.4-0.9 0.6-1.8 0.6-2.7s-0.2-1.9-0.6-2.7c-0.4-0.9-0.9-1.6-1.5-2.2s-1.4-1.1-2.2-1.5-1.8-0.6-2.7-0.6zm0 3c0.3 0 0.5 0.1 0.7 0.3s0.3 0.4 0.3 0.7v2h2c0.3 0 0.5 0.1 0.7 0.3s0.3 0.4 0.3 0.7-0.1 0.5-0.3 0.7-0.4 0.3-0.7 0.3h-2v2c0 0.3-0.1 0.5-0.3 0.7s-0.4 0.3-0.7 0.3-0.5-0.1-0.7-0.3-0.3-0.4-0.3-0.7v-2h-2c-0.3 0-0.5-0.1-0.7-0.3s-0.3-0.4-0.3-0.7 0.1-0.5 0.3-0.7 0.4-0.3 0.7-0.3h2v-2c0-0.3 0.1-0.5 0.3-0.7s0.4-0.3 0.7-0.3z"/>
</svg>
